<mxfile host="Electron" agent="Mozilla/5.0 (Windows NT 10.0; Win64; x64) AppleWebKit/537.36 (KHTML, like Gecko) draw.io/28.0.6 Chrome/138.0.7204.100 Electron/37.2.3 Safari/537.36" version="28.0.6">
  <diagram name="Página-1" id="x4JUN-QiqnLflG_pkyVO">
    <mxGraphModel dx="6407" dy="3203" grid="1" gridSize="10" guides="1" tooltips="1" connect="1" arrows="1" fold="1" page="1" pageScale="1" pageWidth="1654" pageHeight="1169" math="0" shadow="0">
      <root>
        <mxCell id="0" />
        <mxCell id="1" parent="0" />
        <mxCell id="OnQnRQUOSkfBYbq7Mj6k-1" value="REVISTA EJERCITO" style="shape=umlFrame;whiteSpace=wrap;html=1;pointerEvents=0;recursiveResize=0;container=1;collapsible=0;width=160;" parent="1" vertex="1">
          <mxGeometry x="760" y="220" width="640" height="1530" as="geometry" />
        </mxCell>
        <mxCell id="OnQnRQUOSkfBYbq7Mj6k-6" value="CU02. Validación y alta de cuenta" style="ellipse;html=1;whiteSpace=wrap;" parent="OnQnRQUOSkfBYbq7Mj6k-1" vertex="1">
          <mxGeometry x="437.5" y="30" width="115" height="40" as="geometry" />
        </mxCell>
        <mxCell id="OnQnRQUOSkfBYbq7Mj6k-7" value="CU03. Notificación de resultado" style="ellipse;html=1;whiteSpace=wrap;" parent="OnQnRQUOSkfBYbq7Mj6k-1" vertex="1">
          <mxGeometry x="530" y="170" width="100" height="50" as="geometry" />
        </mxCell>
        <mxCell id="OnQnRQUOSkfBYbq7Mj6k-16" value="CU01. Solicitud de acceso" style="ellipse;html=1;whiteSpace=wrap;" parent="OnQnRQUOSkfBYbq7Mj6k-1" vertex="1">
          <mxGeometry x="445" y="620" width="100" height="50" as="geometry" />
        </mxCell>
        <mxCell id="OnQnRQUOSkfBYbq7Mj6k-63" value="&amp;lt;&amp;lt;include&amp;gt;&amp;gt;" style="html=1;verticalAlign=bottom;labelBackgroundColor=none;endArrow=open;endFill=0;dashed=1;rounded=0;exitX=1;exitY=1;exitDx=0;exitDy=0;entryX=0.5;entryY=0;entryDx=0;entryDy=0;" parent="OnQnRQUOSkfBYbq7Mj6k-1" source="OnQnRQUOSkfBYbq7Mj6k-6" target="OnQnRQUOSkfBYbq7Mj6k-7" edge="1">
          <mxGeometry x="0.43" y="27" width="160" relative="1" as="geometry">
            <mxPoint x="30" y="410" as="sourcePoint" />
            <mxPoint x="190" y="410" as="targetPoint" />
            <mxPoint as="offset" />
          </mxGeometry>
        </mxCell>
        <mxCell id="0r64ApJ4u7zwT-0783JS-1" value="CU04. Recuperación de credenciales" style="ellipse;html=1;whiteSpace=wrap;" vertex="1" parent="OnQnRQUOSkfBYbq7Mj6k-1">
          <mxGeometry x="440" y="720" width="110" height="50" as="geometry" />
        </mxCell>
        <mxCell id="0r64ApJ4u7zwT-0783JS-2" value="&amp;lt;&amp;lt;extend&amp;gt;&amp;gt;" style="html=1;verticalAlign=bottom;labelBackgroundColor=none;endArrow=open;endFill=0;dashed=1;rounded=0;exitX=0.5;exitY=0;exitDx=0;exitDy=0;entryX=0.5;entryY=1;entryDx=0;entryDy=0;" edge="1" parent="OnQnRQUOSkfBYbq7Mj6k-1" source="0r64ApJ4u7zwT-0783JS-1" target="OnQnRQUOSkfBYbq7Mj6k-16">
          <mxGeometry x="-0.2" y="-40" width="160" relative="1" as="geometry">
            <mxPoint x="460" y="625" as="sourcePoint" />
            <mxPoint x="565" y="460" as="targetPoint" />
            <Array as="points" />
            <mxPoint as="offset" />
          </mxGeometry>
        </mxCell>
        <mxCell id="0r64ApJ4u7zwT-0783JS-12" value="&amp;lt;&amp;lt;include&amp;gt;&amp;gt;" style="html=1;verticalAlign=bottom;labelBackgroundColor=none;endArrow=open;endFill=0;dashed=1;rounded=0;exitX=0.5;exitY=0;exitDx=0;exitDy=0;entryX=0.5;entryY=1;entryDx=0;entryDy=0;" edge="1" parent="OnQnRQUOSkfBYbq7Mj6k-1" source="OnQnRQUOSkfBYbq7Mj6k-16" target="OnQnRQUOSkfBYbq7Mj6k-6">
          <mxGeometry x="-0.037" y="-35" width="160" relative="1" as="geometry">
            <mxPoint x="210" y="130" as="sourcePoint" />
            <mxPoint x="350" y="145" as="targetPoint" />
            <mxPoint as="offset" />
          </mxGeometry>
        </mxCell>
        <mxCell id="0r64ApJ4u7zwT-0783JS-15" value="CU05. Datos personales de autor" style="ellipse;html=1;whiteSpace=wrap;" vertex="1" parent="OnQnRQUOSkfBYbq7Mj6k-1">
          <mxGeometry x="70" y="80" width="100" height="50" as="geometry" />
        </mxCell>
        <mxCell id="0r64ApJ4u7zwT-0783JS-17" value="CU06. Direcciones del autor" style="ellipse;html=1;whiteSpace=wrap;" vertex="1" parent="OnQnRQUOSkfBYbq7Mj6k-1">
          <mxGeometry x="340" y="80" width="100" height="50" as="geometry" />
        </mxCell>
        <mxCell id="0r64ApJ4u7zwT-0783JS-43" value="CU07. Documentos personales de autor" style="ellipse;html=1;whiteSpace=wrap;" vertex="1" parent="OnQnRQUOSkfBYbq7Mj6k-1">
          <mxGeometry x="320" y="140" width="140" height="50" as="geometry" />
        </mxCell>
        <mxCell id="0r64ApJ4u7zwT-0783JS-46" value="CU08. Perfil Militar de autor" style="ellipse;html=1;whiteSpace=wrap;" vertex="1" parent="OnQnRQUOSkfBYbq7Mj6k-1">
          <mxGeometry x="320" y="200" width="140" height="50" as="geometry" />
        </mxCell>
        <mxCell id="0r64ApJ4u7zwT-0783JS-48" value="CU09. Datos Bancarios de autor" style="ellipse;html=1;whiteSpace=wrap;" vertex="1" parent="OnQnRQUOSkfBYbq7Mj6k-1">
          <mxGeometry x="320" y="260" width="140" height="50" as="geometry" />
        </mxCell>
        <mxCell id="0r64ApJ4u7zwT-0783JS-50" value="CU10. Consulta area personal" style="ellipse;html=1;whiteSpace=wrap;" vertex="1" parent="OnQnRQUOSkfBYbq7Mj6k-1">
          <mxGeometry x="320" y="315" width="140" height="50" as="geometry" />
        </mxCell>
        <mxCell id="0r64ApJ4u7zwT-0783JS-58" value="CU11. Alta de artículo" style="ellipse;html=1;whiteSpace=wrap;" vertex="1" parent="OnQnRQUOSkfBYbq7Mj6k-1">
          <mxGeometry x="190" y="330" width="100" height="50" as="geometry" />
        </mxCell>
        <mxCell id="0r64ApJ4u7zwT-0783JS-59" value="CU12. Subida de manuscrito y anexos" style="ellipse;html=1;whiteSpace=wrap;" vertex="1" parent="OnQnRQUOSkfBYbq7Mj6k-1">
          <mxGeometry x="325" y="410" width="140" height="50" as="geometry" />
        </mxCell>
        <mxCell id="0r64ApJ4u7zwT-0783JS-60" value="CU13. Versionado de manuscrito" style="ellipse;html=1;whiteSpace=wrap;" vertex="1" parent="OnQnRQUOSkfBYbq7Mj6k-1">
          <mxGeometry x="325" y="500" width="140" height="50" as="geometry" />
        </mxCell>
        <mxCell id="0r64ApJ4u7zwT-0783JS-87" value="CU16. Consulta de panel de consejero" style="ellipse;html=1;whiteSpace=wrap;" vertex="1" parent="OnQnRQUOSkfBYbq7Mj6k-1">
          <mxGeometry x="435" y="800" width="120" height="60" as="geometry" />
        </mxCell>
        <mxCell id="0r64ApJ4u7zwT-0783JS-89" value="CU17. Acceso a documentos para evaluar" style="ellipse;html=1;whiteSpace=wrap;" vertex="1" parent="OnQnRQUOSkfBYbq7Mj6k-1">
          <mxGeometry x="300" y="800" width="120" height="60" as="geometry" />
        </mxCell>
        <mxCell id="0r64ApJ4u7zwT-0783JS-91" value="CU18. Registrar evaluación" style="ellipse;html=1;whiteSpace=wrap;" vertex="1" parent="OnQnRQUOSkfBYbq7Mj6k-1">
          <mxGeometry x="100" y="700" width="120" height="60" as="geometry" />
        </mxCell>
        <mxCell id="0r64ApJ4u7zwT-0783JS-92" value="CU19. Subir informe de evaluación" style="ellipse;html=1;whiteSpace=wrap;" vertex="1" parent="OnQnRQUOSkfBYbq7Mj6k-1">
          <mxGeometry x="20" y="800" width="120" height="60" as="geometry" />
        </mxCell>
        <mxCell id="0r64ApJ4u7zwT-0783JS-110" value="&amp;lt;&amp;lt;include&amp;gt;&amp;gt;" style="html=1;verticalAlign=bottom;labelBackgroundColor=none;endArrow=open;endFill=0;dashed=1;rounded=0;exitX=1;exitY=1;exitDx=0;exitDy=0;entryX=0.5;entryY=0;entryDx=0;entryDy=0;" edge="1" parent="OnQnRQUOSkfBYbq7Mj6k-1" source="0r64ApJ4u7zwT-0783JS-58" target="0r64ApJ4u7zwT-0783JS-59">
          <mxGeometry x="0.3288" y="12" width="160" relative="1" as="geometry">
            <mxPoint x="580" y="390" as="sourcePoint" />
            <mxPoint x="630" y="487" as="targetPoint" />
            <mxPoint as="offset" />
          </mxGeometry>
        </mxCell>
        <mxCell id="0r64ApJ4u7zwT-0783JS-112" value="&amp;lt;&amp;lt;extends&amp;gt;&amp;gt;" style="html=1;verticalAlign=bottom;labelBackgroundColor=none;endArrow=open;endFill=0;dashed=1;rounded=0;exitX=0.5;exitY=0;exitDx=0;exitDy=0;entryX=0.5;entryY=1;entryDx=0;entryDy=0;" edge="1" parent="OnQnRQUOSkfBYbq7Mj6k-1" source="0r64ApJ4u7zwT-0783JS-60" target="0r64ApJ4u7zwT-0783JS-59">
          <mxGeometry x="-0.5" y="-35" width="160" relative="1" as="geometry">
            <mxPoint x="540" y="480" as="sourcePoint" />
            <mxPoint x="590" y="577" as="targetPoint" />
            <mxPoint as="offset" />
          </mxGeometry>
        </mxCell>
        <mxCell id="0r64ApJ4u7zwT-0783JS-115" value="&amp;lt;&amp;lt;extends&amp;gt;&amp;gt;" style="html=1;verticalAlign=bottom;labelBackgroundColor=none;endArrow=open;endFill=0;dashed=1;rounded=0;exitX=0.5;exitY=1;exitDx=0;exitDy=0;entryX=1;entryY=0;entryDx=0;entryDy=0;" edge="1" parent="OnQnRQUOSkfBYbq7Mj6k-1" source="0r64ApJ4u7zwT-0783JS-91" target="0r64ApJ4u7zwT-0783JS-92">
          <mxGeometry x="-0.6192" y="34" width="160" relative="1" as="geometry">
            <mxPoint x="580" y="1080" as="sourcePoint" />
            <mxPoint x="580" y="910" as="targetPoint" />
            <mxPoint as="offset" />
          </mxGeometry>
        </mxCell>
        <mxCell id="0r64ApJ4u7zwT-0783JS-118" value="CU27. Buscar autores y consejeros" style="ellipse;html=1;whiteSpace=wrap;" vertex="1" parent="OnQnRQUOSkfBYbq7Mj6k-1">
          <mxGeometry x="145" y="860" width="150" height="50" as="geometry" />
        </mxCell>
        <mxCell id="0r64ApJ4u7zwT-0783JS-125" value="CU30. Ver historial de un autor" style="ellipse;html=1;whiteSpace=wrap;" vertex="1" parent="OnQnRQUOSkfBYbq7Mj6k-1">
          <mxGeometry x="305" y="889" width="110" height="60" as="geometry" />
        </mxCell>
        <mxCell id="0r64ApJ4u7zwT-0783JS-123" value="CU29. Ver historial de un articulo" style="ellipse;html=1;whiteSpace=wrap;" vertex="1" parent="OnQnRQUOSkfBYbq7Mj6k-1">
          <mxGeometry x="437.5" y="930" width="130" height="60" as="geometry" />
        </mxCell>
        <mxCell id="0r64ApJ4u7zwT-0783JS-117" value="CU26. Buscar/filtrar artículos" style="ellipse;html=1;whiteSpace=wrap;" vertex="1" parent="OnQnRQUOSkfBYbq7Mj6k-1">
          <mxGeometry x="295" y="980" width="130" height="50" as="geometry" />
        </mxCell>
        <mxCell id="0r64ApJ4u7zwT-0783JS-130" value="CU34. Gestionar secciones de revista" style="ellipse;html=1;whiteSpace=wrap;" vertex="1" parent="OnQnRQUOSkfBYbq7Mj6k-1">
          <mxGeometry x="20" y="1460" width="130" height="60" as="geometry" />
        </mxCell>
        <mxCell id="0r64ApJ4u7zwT-0783JS-129" value="CU33. Parámetros de revisión" style="ellipse;html=1;whiteSpace=wrap;" vertex="1" parent="OnQnRQUOSkfBYbq7Mj6k-1">
          <mxGeometry x="165" y="1460" width="130" height="60" as="geometry" />
        </mxCell>
        <mxCell id="0r64ApJ4u7zwT-0783JS-128" value="CU32. Paquete para maquetación" style="ellipse;html=1;whiteSpace=wrap;" vertex="1" parent="OnQnRQUOSkfBYbq7Mj6k-1">
          <mxGeometry x="500" y="1410" width="130" height="60" as="geometry" />
        </mxCell>
        <mxCell id="0r64ApJ4u7zwT-0783JS-121" value="CU28. Exportar listados" style="ellipse;html=1;whiteSpace=wrap;" vertex="1" parent="OnQnRQUOSkfBYbq7Mj6k-1">
          <mxGeometry x="370" y="1350" width="150" height="40" as="geometry" />
        </mxCell>
        <mxCell id="0r64ApJ4u7zwT-0783JS-98" value="CU22. Asignar consejeros" style="ellipse;html=1;whiteSpace=wrap;" vertex="1" parent="OnQnRQUOSkfBYbq7Mj6k-1">
          <mxGeometry x="305" y="1160" width="130" height="50" as="geometry" />
        </mxCell>
        <mxCell id="OnQnRQUOSkfBYbq7Mj6k-2" value="Administrador" style="shape=umlActor;verticalLabelPosition=bottom;verticalAlign=top;html=1;" parent="1" vertex="1">
          <mxGeometry x="-10" y="850" width="30" height="60" as="geometry" />
        </mxCell>
        <mxCell id="OnQnRQUOSkfBYbq7Mj6k-3" value="Redactor" style="shape=umlActor;verticalLabelPosition=bottom;verticalAlign=top;html=1;" parent="1" vertex="1">
          <mxGeometry x="70" y="850" width="30" height="60" as="geometry" />
        </mxCell>
        <mxCell id="OnQnRQUOSkfBYbq7Mj6k-4" value="Consejero" style="shape=umlActor;verticalLabelPosition=bottom;verticalAlign=top;html=1;" parent="1" vertex="1">
          <mxGeometry x="-10" y="710" width="30" height="60" as="geometry" />
        </mxCell>
        <mxCell id="OnQnRQUOSkfBYbq7Mj6k-13" value="" style="endArrow=none;html=1;rounded=0;entryX=0;entryY=0.5;entryDx=0;entryDy=0;" parent="1" target="OnQnRQUOSkfBYbq7Mj6k-6" edge="1">
          <mxGeometry width="50" height="50" relative="1" as="geometry">
            <mxPoint x="720" y="270" as="sourcePoint" />
            <mxPoint x="890" y="370" as="targetPoint" />
          </mxGeometry>
        </mxCell>
        <mxCell id="OnQnRQUOSkfBYbq7Mj6k-14" value="" style="endArrow=none;html=1;rounded=0;entryX=0;entryY=0;entryDx=0;entryDy=0;" parent="1" target="OnQnRQUOSkfBYbq7Mj6k-16" edge="1">
          <mxGeometry width="50" height="50" relative="1" as="geometry">
            <mxPoint x="660" y="480" as="sourcePoint" />
            <mxPoint x="890" y="370" as="targetPoint" />
          </mxGeometry>
        </mxCell>
        <mxCell id="OnQnRQUOSkfBYbq7Mj6k-19" value="Autor" style="shape=umlActor;verticalLabelPosition=bottom;verticalAlign=top;html=1;" parent="1" vertex="1">
          <mxGeometry x="70" y="710" width="30" height="60" as="geometry" />
        </mxCell>
        <mxCell id="OnQnRQUOSkfBYbq7Mj6k-20" value="" style="endArrow=none;html=1;rounded=0;entryX=0;entryY=0.5;entryDx=0;entryDy=0;" parent="1" target="OnQnRQUOSkfBYbq7Mj6k-16" edge="1">
          <mxGeometry width="50" height="50" relative="1" as="geometry">
            <mxPoint x="730" y="620" as="sourcePoint" />
            <mxPoint x="960" y="410" as="targetPoint" />
          </mxGeometry>
        </mxCell>
        <mxCell id="OnQnRQUOSkfBYbq7Mj6k-48" value="Director" style="shape=umlActor;verticalLabelPosition=bottom;verticalAlign=top;html=1;" parent="1" vertex="1">
          <mxGeometry x="110" y="980" width="30" height="60" as="geometry" />
        </mxCell>
        <mxCell id="OnQnRQUOSkfBYbq7Mj6k-50" value="Distribuidor" style="shape=umlActor;verticalLabelPosition=bottom;verticalAlign=top;html=1;" parent="1" vertex="1">
          <mxGeometry x="160" y="850" width="30" height="60" as="geometry" />
        </mxCell>
        <mxCell id="OnQnRQUOSkfBYbq7Mj6k-8" value="DICODEF" style="shape=umlActor;verticalLabelPosition=bottom;verticalAlign=top;html=1;" parent="1" vertex="1">
          <mxGeometry x="1450" y="240" width="30" height="60" as="geometry" />
        </mxCell>
        <mxCell id="0r64ApJ4u7zwT-0783JS-3" value="Consulta" style="shape=umlActor;verticalLabelPosition=bottom;verticalAlign=top;html=1;" vertex="1" parent="1">
          <mxGeometry x="160" y="710" width="30" height="60" as="geometry" />
        </mxCell>
        <mxCell id="0r64ApJ4u7zwT-0783JS-4" value="" style="endArrow=block;html=1;rounded=0;endFill=0;" edge="1" parent="1">
          <mxGeometry width="50" height="50" relative="1" as="geometry">
            <mxPoint x="110" y="840" as="sourcePoint" />
            <mxPoint x="150" y="800" as="targetPoint" />
          </mxGeometry>
        </mxCell>
        <mxCell id="0r64ApJ4u7zwT-0783JS-5" value="" style="endArrow=block;html=1;rounded=0;endFill=0;" edge="1" parent="1">
          <mxGeometry width="50" height="50" relative="1" as="geometry">
            <mxPoint x="174.66" y="840" as="sourcePoint" />
            <mxPoint x="174.66" y="800" as="targetPoint" />
          </mxGeometry>
        </mxCell>
        <mxCell id="0r64ApJ4u7zwT-0783JS-6" value="" style="endArrow=block;html=1;rounded=0;endFill=0;" edge="1" parent="1">
          <mxGeometry width="50" height="50" relative="1" as="geometry">
            <mxPoint x="110" y="970" as="sourcePoint" />
            <mxPoint x="80" y="940" as="targetPoint" />
          </mxGeometry>
        </mxCell>
        <mxCell id="0r64ApJ4u7zwT-0783JS-9" value="Administrador" style="shape=umlActor;verticalLabelPosition=bottom;verticalAlign=top;html=1;" vertex="1" parent="1">
          <mxGeometry x="680" y="240" width="30" height="60" as="geometry" />
        </mxCell>
        <mxCell id="0r64ApJ4u7zwT-0783JS-11" value="Consejero" style="shape=umlActor;verticalLabelPosition=bottom;verticalAlign=top;html=1;" vertex="1" parent="1">
          <mxGeometry x="680" y="610" width="30" height="60" as="geometry" />
        </mxCell>
        <mxCell id="0r64ApJ4u7zwT-0783JS-13" value="" style="endArrow=none;html=1;rounded=0;entryX=0;entryY=0;entryDx=0;entryDy=0;" edge="1" parent="1" target="0r64ApJ4u7zwT-0783JS-1">
          <mxGeometry width="50" height="50" relative="1" as="geometry">
            <mxPoint x="660" y="490" as="sourcePoint" />
            <mxPoint x="1010" y="470" as="targetPoint" />
          </mxGeometry>
        </mxCell>
        <mxCell id="0r64ApJ4u7zwT-0783JS-14" value="" style="endArrow=none;html=1;rounded=0;entryX=0;entryY=0.5;entryDx=0;entryDy=0;" edge="1" parent="1" target="0r64ApJ4u7zwT-0783JS-1">
          <mxGeometry width="50" height="50" relative="1" as="geometry">
            <mxPoint x="730" y="630" as="sourcePoint" />
            <mxPoint x="980" y="490" as="targetPoint" />
          </mxGeometry>
        </mxCell>
        <mxCell id="0r64ApJ4u7zwT-0783JS-16" value="" style="endArrow=none;html=1;rounded=0;entryX=0;entryY=0.5;entryDx=0;entryDy=0;" edge="1" parent="1" target="0r64ApJ4u7zwT-0783JS-15">
          <mxGeometry width="50" height="50" relative="1" as="geometry">
            <mxPoint x="660" y="390" as="sourcePoint" />
            <mxPoint x="1245" y="370" as="targetPoint" />
          </mxGeometry>
        </mxCell>
        <mxCell id="0r64ApJ4u7zwT-0783JS-18" value="" style="endArrow=none;html=1;rounded=0;entryX=0;entryY=0.5;entryDx=0;entryDy=0;" edge="1" parent="1" target="0r64ApJ4u7zwT-0783JS-17">
          <mxGeometry width="50" height="50" relative="1" as="geometry">
            <mxPoint x="660" y="400" as="sourcePoint" />
            <mxPoint x="1040" y="380" as="targetPoint" />
          </mxGeometry>
        </mxCell>
        <mxCell id="0r64ApJ4u7zwT-0783JS-44" value="" style="endArrow=none;html=1;rounded=0;entryX=0;entryY=0.5;entryDx=0;entryDy=0;" edge="1" parent="1" target="0r64ApJ4u7zwT-0783JS-43">
          <mxGeometry width="50" height="50" relative="1" as="geometry">
            <mxPoint x="660" y="410" as="sourcePoint" />
            <mxPoint x="1150" y="400" as="targetPoint" />
          </mxGeometry>
        </mxCell>
        <mxCell id="0r64ApJ4u7zwT-0783JS-10" value="Autor" style="shape=umlActor;verticalLabelPosition=bottom;verticalAlign=top;html=1;" vertex="1" parent="1">
          <mxGeometry x="610" y="400" width="30" height="60" as="geometry" />
        </mxCell>
        <mxCell id="0r64ApJ4u7zwT-0783JS-47" value="" style="endArrow=none;html=1;rounded=0;entryX=0;entryY=0.5;entryDx=0;entryDy=0;" edge="1" parent="1" target="0r64ApJ4u7zwT-0783JS-46">
          <mxGeometry width="50" height="50" relative="1" as="geometry">
            <mxPoint x="660" y="420" as="sourcePoint" />
            <mxPoint x="1250" y="485" as="targetPoint" />
          </mxGeometry>
        </mxCell>
        <mxCell id="0r64ApJ4u7zwT-0783JS-49" value="" style="endArrow=none;html=1;rounded=0;entryX=0;entryY=0.5;entryDx=0;entryDy=0;" edge="1" parent="1" target="0r64ApJ4u7zwT-0783JS-48">
          <mxGeometry width="50" height="50" relative="1" as="geometry">
            <mxPoint x="660" y="430" as="sourcePoint" />
            <mxPoint x="1270" y="455" as="targetPoint" />
          </mxGeometry>
        </mxCell>
        <mxCell id="0r64ApJ4u7zwT-0783JS-51" value="" style="endArrow=none;html=1;rounded=0;entryX=0;entryY=0.5;entryDx=0;entryDy=0;" edge="1" parent="1" target="0r64ApJ4u7zwT-0783JS-50">
          <mxGeometry width="50" height="50" relative="1" as="geometry">
            <mxPoint x="660" y="440" as="sourcePoint" />
            <mxPoint x="1340" y="565" as="targetPoint" />
          </mxGeometry>
        </mxCell>
        <mxCell id="0r64ApJ4u7zwT-0783JS-52" value="" style="endArrow=block;html=1;rounded=0;endFill=0;" edge="1" parent="1">
          <mxGeometry width="50" height="50" relative="1" as="geometry">
            <mxPoint x="84.71" y="840" as="sourcePoint" />
            <mxPoint x="84.71" y="800" as="targetPoint" />
          </mxGeometry>
        </mxCell>
        <mxCell id="0r64ApJ4u7zwT-0783JS-53" value="" style="endArrow=block;html=1;rounded=0;endFill=0;" edge="1" parent="1">
          <mxGeometry width="50" height="50" relative="1" as="geometry">
            <mxPoint x="70" y="840" as="sourcePoint" />
            <mxPoint x="4.7099999999999795" y="800" as="targetPoint" />
          </mxGeometry>
        </mxCell>
        <mxCell id="0r64ApJ4u7zwT-0783JS-54" value="" style="endArrow=block;html=1;rounded=0;endFill=0;" edge="1" parent="1">
          <mxGeometry width="50" height="50" relative="1" as="geometry">
            <mxPoint x="140" y="970" as="sourcePoint" />
            <mxPoint x="170" y="940" as="targetPoint" />
          </mxGeometry>
        </mxCell>
        <mxCell id="0r64ApJ4u7zwT-0783JS-56" value="" style="endArrow=block;html=1;rounded=0;endFill=0;" edge="1" parent="1">
          <mxGeometry width="50" height="50" relative="1" as="geometry">
            <mxPoint x="640" y="1340" as="sourcePoint" />
            <mxPoint x="680" y="700" as="targetPoint" />
          </mxGeometry>
        </mxCell>
        <mxCell id="0r64ApJ4u7zwT-0783JS-57" value="" style="endArrow=block;html=1;rounded=0;endFill=0;" edge="1" parent="1">
          <mxGeometry width="50" height="50" relative="1" as="geometry">
            <mxPoint x="620" y="1340" as="sourcePoint" />
            <mxPoint x="624.7" y="490" as="targetPoint" />
          </mxGeometry>
        </mxCell>
        <mxCell id="0r64ApJ4u7zwT-0783JS-61" value="" style="endArrow=none;html=1;rounded=0;entryX=0;entryY=0;entryDx=0;entryDy=0;" edge="1" parent="1" target="0r64ApJ4u7zwT-0783JS-58">
          <mxGeometry width="50" height="50" relative="1" as="geometry">
            <mxPoint x="660" y="450" as="sourcePoint" />
            <mxPoint x="1405" y="925" as="targetPoint" />
          </mxGeometry>
        </mxCell>
        <mxCell id="0r64ApJ4u7zwT-0783JS-62" value="" style="endArrow=none;html=1;rounded=0;entryX=0;entryY=0.5;entryDx=0;entryDy=0;" edge="1" parent="1" target="0r64ApJ4u7zwT-0783JS-59">
          <mxGeometry width="50" height="50" relative="1" as="geometry">
            <mxPoint x="660" y="460" as="sourcePoint" />
            <mxPoint x="1485" y="975" as="targetPoint" />
          </mxGeometry>
        </mxCell>
        <mxCell id="0r64ApJ4u7zwT-0783JS-63" value="" style="endArrow=none;html=1;rounded=0;entryX=0;entryY=0.5;entryDx=0;entryDy=0;" edge="1" parent="1" target="0r64ApJ4u7zwT-0783JS-60">
          <mxGeometry width="50" height="50" relative="1" as="geometry">
            <mxPoint x="660" y="470" as="sourcePoint" />
            <mxPoint x="1865" y="1105" as="targetPoint" />
          </mxGeometry>
        </mxCell>
        <mxCell id="0r64ApJ4u7zwT-0783JS-88" value="" style="endArrow=none;html=1;rounded=0;entryX=0;entryY=0;entryDx=0;entryDy=0;" edge="1" parent="1" target="0r64ApJ4u7zwT-0783JS-87">
          <mxGeometry width="50" height="50" relative="1" as="geometry">
            <mxPoint x="730" y="640" as="sourcePoint" />
            <mxPoint x="1330" y="1125" as="targetPoint" />
          </mxGeometry>
        </mxCell>
        <mxCell id="0r64ApJ4u7zwT-0783JS-90" value="" style="endArrow=none;html=1;rounded=0;entryX=0;entryY=0;entryDx=0;entryDy=0;" edge="1" parent="1" target="0r64ApJ4u7zwT-0783JS-89">
          <mxGeometry width="50" height="50" relative="1" as="geometry">
            <mxPoint x="730" y="650" as="sourcePoint" />
            <mxPoint x="1270" y="1140" as="targetPoint" />
          </mxGeometry>
        </mxCell>
        <mxCell id="0r64ApJ4u7zwT-0783JS-93" value="" style="endArrow=none;html=1;rounded=0;entryX=0.5;entryY=0;entryDx=0;entryDy=0;" edge="1" parent="1" target="0r64ApJ4u7zwT-0783JS-91">
          <mxGeometry width="50" height="50" relative="1" as="geometry">
            <mxPoint x="730" y="660" as="sourcePoint" />
            <mxPoint x="1197" y="1269" as="targetPoint" />
          </mxGeometry>
        </mxCell>
        <mxCell id="0r64ApJ4u7zwT-0783JS-94" value="" style="endArrow=none;html=1;rounded=0;entryX=0.5;entryY=0;entryDx=0;entryDy=0;" edge="1" parent="1" target="0r64ApJ4u7zwT-0783JS-92">
          <mxGeometry width="50" height="50" relative="1" as="geometry">
            <mxPoint x="730" y="670" as="sourcePoint" />
            <mxPoint x="1100" y="1310" as="targetPoint" />
          </mxGeometry>
        </mxCell>
        <mxCell id="0r64ApJ4u7zwT-0783JS-109" value="" style="endArrow=none;html=1;rounded=0;exitX=1;exitY=0.5;exitDx=0;exitDy=0;" edge="1" parent="1" source="OnQnRQUOSkfBYbq7Mj6k-6">
          <mxGeometry width="50" height="50" relative="1" as="geometry">
            <mxPoint x="1370" y="285" as="sourcePoint" />
            <mxPoint x="1440" y="270" as="targetPoint" />
          </mxGeometry>
        </mxCell>
        <mxCell id="0r64ApJ4u7zwT-0783JS-64" value="CU14. Cambio de estado de articulo" style="ellipse;html=1;whiteSpace=wrap;" vertex="1" parent="1">
          <mxGeometry x="1200" y="1230" width="120" height="60" as="geometry" />
        </mxCell>
        <mxCell id="0r64ApJ4u7zwT-0783JS-66" value="CU15. Comunicación con el autor" style="ellipse;html=1;whiteSpace=wrap;" vertex="1" parent="1">
          <mxGeometry x="780" y="1230" width="130" height="60" as="geometry" />
        </mxCell>
        <mxCell id="0r64ApJ4u7zwT-0783JS-95" value="CU20. Control de evaluaciones" style="ellipse;html=1;whiteSpace=wrap;" vertex="1" parent="1">
          <mxGeometry x="930" y="1320" width="130" height="60" as="geometry" />
        </mxCell>
        <mxCell id="0r64ApJ4u7zwT-0783JS-97" value="CU21. Anonimización de manuscrito" style="ellipse;html=1;whiteSpace=wrap;" vertex="1" parent="1">
          <mxGeometry x="930" y="1230" width="130" height="60" as="geometry" />
        </mxCell>
        <mxCell id="0r64ApJ4u7zwT-0783JS-99" value="CU23. Decisión editorial" style="ellipse;html=1;whiteSpace=wrap;" vertex="1" parent="1">
          <mxGeometry x="1195" y="1420" width="130" height="60" as="geometry" />
        </mxCell>
        <mxCell id="0r64ApJ4u7zwT-0783JS-101" value="CU24. Gestionar Número de Revista" style="ellipse;html=1;whiteSpace=wrap;" vertex="1" parent="1">
          <mxGeometry x="1260" y="1495" width="130" height="60" as="geometry" />
        </mxCell>
        <mxCell id="0r64ApJ4u7zwT-0783JS-102" value="CU25. Generar etiquetas de cortesía" style="ellipse;html=1;whiteSpace=wrap;" vertex="1" parent="1">
          <mxGeometry x="1060" y="1495" width="130" height="60" as="geometry" />
        </mxCell>
        <mxCell id="0r64ApJ4u7zwT-0783JS-111" value="&amp;lt;&amp;lt;include&amp;gt;&amp;gt;" style="html=1;verticalAlign=bottom;labelBackgroundColor=none;endArrow=open;endFill=0;dashed=1;rounded=0;entryX=1;entryY=1;entryDx=0;entryDy=0;exitX=0;exitY=0;exitDx=0;exitDy=0;" edge="1" parent="1" source="0r64ApJ4u7zwT-0783JS-98" target="0r64ApJ4u7zwT-0783JS-95">
          <mxGeometry x="-1" y="-10" width="160" relative="1" as="geometry">
            <mxPoint x="1280" y="1340" as="sourcePoint" />
            <mxPoint x="1400" y="1397" as="targetPoint" />
            <mxPoint x="3" y="2" as="offset" />
          </mxGeometry>
        </mxCell>
        <mxCell id="0r64ApJ4u7zwT-0783JS-113" value="&amp;lt;&amp;lt;include&amp;gt;&amp;gt;" style="html=1;verticalAlign=bottom;labelBackgroundColor=none;endArrow=open;endFill=0;dashed=1;rounded=0;exitX=0.5;exitY=0;exitDx=0;exitDy=0;entryX=0;entryY=1;entryDx=0;entryDy=0;" edge="1" parent="1" source="0r64ApJ4u7zwT-0783JS-98" target="0r64ApJ4u7zwT-0783JS-64">
          <mxGeometry x="-0.2093" y="-34" width="160" relative="1" as="geometry">
            <mxPoint x="1280" y="1370" as="sourcePoint" />
            <mxPoint x="1280" y="1320" as="targetPoint" />
            <Array as="points" />
            <mxPoint as="offset" />
          </mxGeometry>
        </mxCell>
        <mxCell id="0r64ApJ4u7zwT-0783JS-114" value="&amp;lt;&amp;lt;extends&amp;gt;&amp;gt;" style="html=1;verticalAlign=bottom;labelBackgroundColor=none;endArrow=open;endFill=0;dashed=1;rounded=0;exitX=0.5;exitY=0;exitDx=0;exitDy=0;entryX=0.5;entryY=1;entryDx=0;entryDy=0;" edge="1" parent="1" source="0r64ApJ4u7zwT-0783JS-99" target="0r64ApJ4u7zwT-0783JS-64">
          <mxGeometry x="-0.1765" y="-40" width="160" relative="1" as="geometry">
            <mxPoint x="1300" y="1420" as="sourcePoint" />
            <mxPoint x="1300" y="1380" as="targetPoint" />
            <mxPoint as="offset" />
          </mxGeometry>
        </mxCell>
        <mxCell id="0r64ApJ4u7zwT-0783JS-116" value="&amp;lt;&amp;lt;extends&amp;gt;&amp;gt;" style="html=1;verticalAlign=bottom;labelBackgroundColor=none;endArrow=open;endFill=0;dashed=1;rounded=0;exitX=0;exitY=0.5;exitDx=0;exitDy=0;entryX=1;entryY=0.5;entryDx=0;entryDy=0;" edge="1" parent="1" source="0r64ApJ4u7zwT-0783JS-101" target="0r64ApJ4u7zwT-0783JS-102">
          <mxGeometry x="0.0286" width="160" relative="1" as="geometry">
            <mxPoint x="1017" y="1550" as="sourcePoint" />
            <mxPoint x="980" y="1599" as="targetPoint" />
            <mxPoint as="offset" />
          </mxGeometry>
        </mxCell>
        <mxCell id="0r64ApJ4u7zwT-0783JS-135" value="&amp;lt;&amp;lt;extends&amp;gt;&amp;gt;" style="html=1;verticalAlign=bottom;labelBackgroundColor=none;endArrow=open;endFill=0;dashed=1;rounded=0;exitX=0.5;exitY=0;exitDx=0;exitDy=0;entryX=0.5;entryY=1;entryDx=0;entryDy=0;" edge="1" parent="1" source="0r64ApJ4u7zwT-0783JS-128" target="0r64ApJ4u7zwT-0783JS-101">
          <mxGeometry x="-0.0968" y="-45" width="160" relative="1" as="geometry">
            <mxPoint x="1350" y="1590" as="sourcePoint" />
            <mxPoint x="1280" y="1590" as="targetPoint" />
            <mxPoint as="offset" />
          </mxGeometry>
        </mxCell>
        <mxCell id="0r64ApJ4u7zwT-0783JS-55" value="Redactor" style="shape=umlActor;verticalLabelPosition=bottom;verticalAlign=top;html=1;" vertex="1" parent="1">
          <mxGeometry x="620" y="1360" width="30" height="60" as="geometry" />
        </mxCell>
        <mxCell id="0r64ApJ4u7zwT-0783JS-65" value="" style="endArrow=none;html=1;rounded=0;entryX=0;entryY=0.5;entryDx=0;entryDy=0;" edge="1" parent="1" target="0r64ApJ4u7zwT-0783JS-64">
          <mxGeometry width="50" height="50" relative="1" as="geometry">
            <mxPoint x="670" y="1370" as="sourcePoint" />
            <mxPoint x="1425" y="1245" as="targetPoint" />
          </mxGeometry>
        </mxCell>
        <mxCell id="0r64ApJ4u7zwT-0783JS-67" value="" style="endArrow=none;html=1;rounded=0;entryX=0;entryY=1;entryDx=0;entryDy=0;" edge="1" parent="1" target="0r64ApJ4u7zwT-0783JS-66">
          <mxGeometry width="50" height="50" relative="1" as="geometry">
            <mxPoint x="670" y="1350" as="sourcePoint" />
            <mxPoint x="950" y="1010" as="targetPoint" />
          </mxGeometry>
        </mxCell>
        <mxCell id="0r64ApJ4u7zwT-0783JS-96" value="" style="endArrow=none;html=1;rounded=0;entryX=0;entryY=0.5;entryDx=0;entryDy=0;" edge="1" parent="1" target="0r64ApJ4u7zwT-0783JS-95">
          <mxGeometry width="50" height="50" relative="1" as="geometry">
            <mxPoint x="670" y="1380" as="sourcePoint" />
            <mxPoint x="974" y="1350" as="targetPoint" />
          </mxGeometry>
        </mxCell>
        <mxCell id="0r64ApJ4u7zwT-0783JS-103" value="" style="endArrow=none;html=1;rounded=0;entryX=0;entryY=1;entryDx=0;entryDy=0;" edge="1" parent="1" target="0r64ApJ4u7zwT-0783JS-97">
          <mxGeometry width="50" height="50" relative="1" as="geometry">
            <mxPoint x="670" y="1360" as="sourcePoint" />
            <mxPoint x="1280" y="1390" as="targetPoint" />
          </mxGeometry>
        </mxCell>
        <mxCell id="0r64ApJ4u7zwT-0783JS-104" value="" style="endArrow=none;html=1;rounded=0;entryX=0;entryY=0.5;entryDx=0;entryDy=0;" edge="1" parent="1" target="0r64ApJ4u7zwT-0783JS-98">
          <mxGeometry width="50" height="50" relative="1" as="geometry">
            <mxPoint x="670" y="1390" as="sourcePoint" />
            <mxPoint x="1100" y="1420" as="targetPoint" />
          </mxGeometry>
        </mxCell>
        <mxCell id="0r64ApJ4u7zwT-0783JS-105" value="" style="endArrow=none;html=1;rounded=0;entryX=0;entryY=0.5;entryDx=0;entryDy=0;" edge="1" parent="1" target="0r64ApJ4u7zwT-0783JS-99">
          <mxGeometry width="50" height="50" relative="1" as="geometry">
            <mxPoint x="670" y="1400" as="sourcePoint" />
            <mxPoint x="1100" y="1430" as="targetPoint" />
          </mxGeometry>
        </mxCell>
        <mxCell id="0r64ApJ4u7zwT-0783JS-107" value="" style="endArrow=none;html=1;rounded=0;entryX=0;entryY=0;entryDx=0;entryDy=0;" edge="1" parent="1" target="0r64ApJ4u7zwT-0783JS-101">
          <mxGeometry width="50" height="50" relative="1" as="geometry">
            <mxPoint x="670" y="1410" as="sourcePoint" />
            <mxPoint x="1250" y="1500" as="targetPoint" />
          </mxGeometry>
        </mxCell>
        <mxCell id="0r64ApJ4u7zwT-0783JS-108" value="" style="endArrow=none;html=1;rounded=0;entryX=0;entryY=0;entryDx=0;entryDy=0;" edge="1" parent="1" target="0r64ApJ4u7zwT-0783JS-102">
          <mxGeometry width="50" height="50" relative="1" as="geometry">
            <mxPoint x="670" y="1420" as="sourcePoint" />
            <mxPoint x="1220" y="1510" as="targetPoint" />
          </mxGeometry>
        </mxCell>
        <mxCell id="0r64ApJ4u7zwT-0783JS-119" value="" style="endArrow=none;html=1;rounded=0;entryX=0;entryY=0.5;entryDx=0;entryDy=0;" edge="1" parent="1" target="0r64ApJ4u7zwT-0783JS-117">
          <mxGeometry width="50" height="50" relative="1" as="geometry">
            <mxPoint x="720" y="1200" as="sourcePoint" />
            <mxPoint x="1159" y="1589" as="targetPoint" />
          </mxGeometry>
        </mxCell>
        <mxCell id="0r64ApJ4u7zwT-0783JS-120" value="" style="endArrow=none;html=1;rounded=0;entryX=0;entryY=0.5;entryDx=0;entryDy=0;" edge="1" parent="1" target="0r64ApJ4u7zwT-0783JS-118">
          <mxGeometry width="50" height="50" relative="1" as="geometry">
            <mxPoint x="720" y="1170" as="sourcePoint" />
            <mxPoint x="1149" y="1609" as="targetPoint" />
          </mxGeometry>
        </mxCell>
        <mxCell id="0r64ApJ4u7zwT-0783JS-122" value="" style="endArrow=none;html=1;rounded=0;entryX=0;entryY=0.5;entryDx=0;entryDy=0;" edge="1" parent="1" target="0r64ApJ4u7zwT-0783JS-121">
          <mxGeometry width="50" height="50" relative="1" as="geometry">
            <mxPoint x="670" y="1430" as="sourcePoint" />
            <mxPoint x="1029" y="1639" as="targetPoint" />
          </mxGeometry>
        </mxCell>
        <mxCell id="0r64ApJ4u7zwT-0783JS-124" value="" style="endArrow=none;html=1;rounded=0;entryX=0;entryY=0.5;entryDx=0;entryDy=0;" edge="1" parent="1" target="0r64ApJ4u7zwT-0783JS-123">
          <mxGeometry width="50" height="50" relative="1" as="geometry">
            <mxPoint x="720" y="1190" as="sourcePoint" />
            <mxPoint x="1220" y="1680" as="targetPoint" />
          </mxGeometry>
        </mxCell>
        <mxCell id="0r64ApJ4u7zwT-0783JS-126" value="" style="endArrow=none;html=1;rounded=0;entryX=0;entryY=0.5;entryDx=0;entryDy=0;" edge="1" parent="1" target="0r64ApJ4u7zwT-0783JS-125">
          <mxGeometry width="50" height="50" relative="1" as="geometry">
            <mxPoint x="720" y="1180" as="sourcePoint" />
            <mxPoint x="1119" y="1709" as="targetPoint" />
          </mxGeometry>
        </mxCell>
        <mxCell id="0r64ApJ4u7zwT-0783JS-131" value="" style="endArrow=none;html=1;rounded=0;entryX=0;entryY=0.5;entryDx=0;entryDy=0;" edge="1" parent="1" target="0r64ApJ4u7zwT-0783JS-128">
          <mxGeometry width="50" height="50" relative="1" as="geometry">
            <mxPoint x="670" y="1440" as="sourcePoint" />
            <mxPoint x="1425" y="1780" as="targetPoint" />
          </mxGeometry>
        </mxCell>
        <mxCell id="0r64ApJ4u7zwT-0783JS-133" value="" style="endArrow=none;html=1;rounded=0;entryX=0.5;entryY=0;entryDx=0;entryDy=0;" edge="1" parent="1" target="0r64ApJ4u7zwT-0783JS-129">
          <mxGeometry width="50" height="50" relative="1" as="geometry">
            <mxPoint x="650" y="1450" as="sourcePoint" />
            <mxPoint x="1500" y="1900" as="targetPoint" />
          </mxGeometry>
        </mxCell>
        <mxCell id="0r64ApJ4u7zwT-0783JS-134" value="" style="endArrow=none;html=1;rounded=0;entryX=0;entryY=0;entryDx=0;entryDy=0;" edge="1" parent="1" target="0r64ApJ4u7zwT-0783JS-130">
          <mxGeometry width="50" height="50" relative="1" as="geometry">
            <mxPoint x="640" y="1450" as="sourcePoint" />
            <mxPoint x="1150" y="1680" as="targetPoint" />
          </mxGeometry>
        </mxCell>
        <mxCell id="0r64ApJ4u7zwT-0783JS-136" value="Consulta" style="shape=umlActor;verticalLabelPosition=bottom;verticalAlign=top;html=1;" vertex="1" parent="1">
          <mxGeometry x="680" y="1150" width="30" height="60" as="geometry" />
        </mxCell>
        <mxCell id="0r64ApJ4u7zwT-0783JS-137" value="" style="endArrow=block;html=1;rounded=0;endFill=0;" edge="1" parent="1">
          <mxGeometry width="50" height="50" relative="1" as="geometry">
            <mxPoint x="650" y="1340" as="sourcePoint" />
            <mxPoint x="690" y="1240" as="targetPoint" />
          </mxGeometry>
        </mxCell>
        <mxCell id="0r64ApJ4u7zwT-0783JS-138" value="" style="endArrow=none;html=1;rounded=0;entryX=0;entryY=0;entryDx=0;entryDy=0;" edge="1" parent="1" target="0r64ApJ4u7zwT-0783JS-127">
          <mxGeometry width="50" height="50" relative="1" as="geometry">
            <mxPoint x="670" y="1450" as="sourcePoint" />
            <mxPoint x="1260" y="1740" as="targetPoint" />
          </mxGeometry>
        </mxCell>
        <mxCell id="0r64ApJ4u7zwT-0783JS-127" value="CU31. Marcar articulos asignados a un Nº de Revista" style="ellipse;html=1;whiteSpace=wrap;" vertex="1" parent="1">
          <mxGeometry x="1080" y="1680" width="180" height="60" as="geometry" />
        </mxCell>
        <mxCell id="0r64ApJ4u7zwT-0783JS-139" value="Director" style="shape=umlActor;verticalLabelPosition=bottom;verticalAlign=top;html=1;" vertex="1" parent="1">
          <mxGeometry x="620" y="1555" width="30" height="60" as="geometry" />
        </mxCell>
        <mxCell id="0r64ApJ4u7zwT-0783JS-140" value="" style="endArrow=block;html=1;rounded=0;endFill=0;" edge="1" parent="1">
          <mxGeometry width="50" height="50" relative="1" as="geometry">
            <mxPoint x="634.64" y="1540" as="sourcePoint" />
            <mxPoint x="634.64" y="1460" as="targetPoint" />
          </mxGeometry>
        </mxCell>
        <mxCell id="0r64ApJ4u7zwT-0783JS-141" value="REVISTA EJERCITO" style="shape=umlFrame;whiteSpace=wrap;html=1;pointerEvents=0;recursiveResize=0;container=1;collapsible=0;width=160;" vertex="1" parent="1">
          <mxGeometry x="1850" y="224" width="640" height="1956" as="geometry" />
        </mxCell>
        <mxCell id="0r64ApJ4u7zwT-0783JS-142" value="CU02. Validación y alta de cuenta" style="ellipse;html=1;whiteSpace=wrap;" vertex="1" parent="0r64ApJ4u7zwT-0783JS-141">
          <mxGeometry x="437.5" y="30" width="115" height="40" as="geometry" />
        </mxCell>
        <mxCell id="0r64ApJ4u7zwT-0783JS-143" value="CU03. Notificación de resultado" style="ellipse;html=1;whiteSpace=wrap;" vertex="1" parent="0r64ApJ4u7zwT-0783JS-141">
          <mxGeometry x="530" y="170" width="100" height="50" as="geometry" />
        </mxCell>
        <mxCell id="0r64ApJ4u7zwT-0783JS-144" value="CU01. Solicitud de acceso" style="ellipse;html=1;whiteSpace=wrap;" vertex="1" parent="0r64ApJ4u7zwT-0783JS-141">
          <mxGeometry x="445" y="620" width="100" height="50" as="geometry" />
        </mxCell>
        <mxCell id="0r64ApJ4u7zwT-0783JS-145" value="&amp;lt;&amp;lt;include&amp;gt;&amp;gt;" style="html=1;verticalAlign=bottom;labelBackgroundColor=none;endArrow=open;endFill=0;dashed=1;rounded=0;exitX=1;exitY=1;exitDx=0;exitDy=0;entryX=0.5;entryY=0;entryDx=0;entryDy=0;" edge="1" parent="0r64ApJ4u7zwT-0783JS-141" source="0r64ApJ4u7zwT-0783JS-142" target="0r64ApJ4u7zwT-0783JS-143">
          <mxGeometry x="0.43" y="27" width="160" relative="1" as="geometry">
            <mxPoint x="30" y="410" as="sourcePoint" />
            <mxPoint x="190" y="410" as="targetPoint" />
            <mxPoint as="offset" />
          </mxGeometry>
        </mxCell>
        <mxCell id="0r64ApJ4u7zwT-0783JS-146" value="CU04. Recuperación de credenciales" style="ellipse;html=1;whiteSpace=wrap;" vertex="1" parent="0r64ApJ4u7zwT-0783JS-141">
          <mxGeometry x="440" y="720" width="110" height="50" as="geometry" />
        </mxCell>
        <mxCell id="0r64ApJ4u7zwT-0783JS-147" value="&amp;lt;&amp;lt;extend&amp;gt;&amp;gt;" style="html=1;verticalAlign=bottom;labelBackgroundColor=none;endArrow=open;endFill=0;dashed=1;rounded=0;exitX=0.5;exitY=0;exitDx=0;exitDy=0;entryX=0.5;entryY=1;entryDx=0;entryDy=0;" edge="1" parent="0r64ApJ4u7zwT-0783JS-141" source="0r64ApJ4u7zwT-0783JS-146" target="0r64ApJ4u7zwT-0783JS-144">
          <mxGeometry x="-0.2" y="-40" width="160" relative="1" as="geometry">
            <mxPoint x="460" y="625" as="sourcePoint" />
            <mxPoint x="565" y="460" as="targetPoint" />
            <Array as="points" />
            <mxPoint as="offset" />
          </mxGeometry>
        </mxCell>
        <mxCell id="0r64ApJ4u7zwT-0783JS-148" value="&amp;lt;&amp;lt;include&amp;gt;&amp;gt;" style="html=1;verticalAlign=bottom;labelBackgroundColor=none;endArrow=open;endFill=0;dashed=1;rounded=0;exitX=0.5;exitY=0;exitDx=0;exitDy=0;entryX=0.5;entryY=1;entryDx=0;entryDy=0;" edge="1" parent="0r64ApJ4u7zwT-0783JS-141" source="0r64ApJ4u7zwT-0783JS-144" target="0r64ApJ4u7zwT-0783JS-142">
          <mxGeometry x="-0.037" y="-35" width="160" relative="1" as="geometry">
            <mxPoint x="210" y="130" as="sourcePoint" />
            <mxPoint x="350" y="145" as="targetPoint" />
            <mxPoint as="offset" />
          </mxGeometry>
        </mxCell>
        <mxCell id="0r64ApJ4u7zwT-0783JS-149" value="CU05. Datos personales de autor" style="ellipse;html=1;whiteSpace=wrap;" vertex="1" parent="0r64ApJ4u7zwT-0783JS-141">
          <mxGeometry x="70" y="80" width="100" height="50" as="geometry" />
        </mxCell>
        <mxCell id="0r64ApJ4u7zwT-0783JS-150" value="CU06. Direcciones del autor" style="ellipse;html=1;whiteSpace=wrap;" vertex="1" parent="0r64ApJ4u7zwT-0783JS-141">
          <mxGeometry x="340" y="80" width="100" height="50" as="geometry" />
        </mxCell>
        <mxCell id="0r64ApJ4u7zwT-0783JS-151" value="CU07. Documentos personales de autor" style="ellipse;html=1;whiteSpace=wrap;" vertex="1" parent="0r64ApJ4u7zwT-0783JS-141">
          <mxGeometry x="320" y="140" width="140" height="50" as="geometry" />
        </mxCell>
        <mxCell id="0r64ApJ4u7zwT-0783JS-152" value="CU08. Perfil Militar de autor" style="ellipse;html=1;whiteSpace=wrap;" vertex="1" parent="0r64ApJ4u7zwT-0783JS-141">
          <mxGeometry x="320" y="200" width="140" height="50" as="geometry" />
        </mxCell>
        <mxCell id="0r64ApJ4u7zwT-0783JS-153" value="CU09. Datos Bancarios de autor" style="ellipse;html=1;whiteSpace=wrap;" vertex="1" parent="0r64ApJ4u7zwT-0783JS-141">
          <mxGeometry x="320" y="260" width="140" height="50" as="geometry" />
        </mxCell>
        <mxCell id="0r64ApJ4u7zwT-0783JS-154" value="CU10. Consulta area personal" style="ellipse;html=1;whiteSpace=wrap;" vertex="1" parent="0r64ApJ4u7zwT-0783JS-141">
          <mxGeometry x="320" y="315" width="140" height="50" as="geometry" />
        </mxCell>
        <mxCell id="0r64ApJ4u7zwT-0783JS-155" value="CU11. Alta de artículo" style="ellipse;html=1;whiteSpace=wrap;" vertex="1" parent="0r64ApJ4u7zwT-0783JS-141">
          <mxGeometry x="190" y="330" width="100" height="50" as="geometry" />
        </mxCell>
        <mxCell id="0r64ApJ4u7zwT-0783JS-156" value="CU12. Subida de manuscrito y anexos" style="ellipse;html=1;whiteSpace=wrap;" vertex="1" parent="0r64ApJ4u7zwT-0783JS-141">
          <mxGeometry x="325" y="410" width="140" height="50" as="geometry" />
        </mxCell>
        <mxCell id="0r64ApJ4u7zwT-0783JS-157" value="CU13. Versionado de manuscrito" style="ellipse;html=1;whiteSpace=wrap;" vertex="1" parent="0r64ApJ4u7zwT-0783JS-141">
          <mxGeometry x="325" y="500" width="140" height="50" as="geometry" />
        </mxCell>
        <mxCell id="0r64ApJ4u7zwT-0783JS-158" value="CU16. Consulta de panel de consejero" style="ellipse;html=1;whiteSpace=wrap;" vertex="1" parent="0r64ApJ4u7zwT-0783JS-141">
          <mxGeometry x="435" y="800" width="120" height="60" as="geometry" />
        </mxCell>
        <mxCell id="0r64ApJ4u7zwT-0783JS-159" value="CU17. Acceso a documentos para evaluar" style="ellipse;html=1;whiteSpace=wrap;" vertex="1" parent="0r64ApJ4u7zwT-0783JS-141">
          <mxGeometry x="300" y="800" width="120" height="60" as="geometry" />
        </mxCell>
        <mxCell id="0r64ApJ4u7zwT-0783JS-160" value="CU18. Registrar evaluación" style="ellipse;html=1;whiteSpace=wrap;" vertex="1" parent="0r64ApJ4u7zwT-0783JS-141">
          <mxGeometry x="100" y="700" width="120" height="60" as="geometry" />
        </mxCell>
        <mxCell id="0r64ApJ4u7zwT-0783JS-161" value="CU19. Subir informe de evaluación" style="ellipse;html=1;whiteSpace=wrap;" vertex="1" parent="0r64ApJ4u7zwT-0783JS-141">
          <mxGeometry x="20" y="800" width="120" height="60" as="geometry" />
        </mxCell>
        <mxCell id="0r64ApJ4u7zwT-0783JS-162" value="&amp;lt;&amp;lt;include&amp;gt;&amp;gt;" style="html=1;verticalAlign=bottom;labelBackgroundColor=none;endArrow=open;endFill=0;dashed=1;rounded=0;exitX=1;exitY=1;exitDx=0;exitDy=0;entryX=0.5;entryY=0;entryDx=0;entryDy=0;" edge="1" parent="0r64ApJ4u7zwT-0783JS-141" source="0r64ApJ4u7zwT-0783JS-155" target="0r64ApJ4u7zwT-0783JS-156">
          <mxGeometry x="0.3288" y="12" width="160" relative="1" as="geometry">
            <mxPoint x="580" y="390" as="sourcePoint" />
            <mxPoint x="630" y="487" as="targetPoint" />
            <mxPoint as="offset" />
          </mxGeometry>
        </mxCell>
        <mxCell id="0r64ApJ4u7zwT-0783JS-163" value="&amp;lt;&amp;lt;extends&amp;gt;&amp;gt;" style="html=1;verticalAlign=bottom;labelBackgroundColor=none;endArrow=open;endFill=0;dashed=1;rounded=0;exitX=0.5;exitY=0;exitDx=0;exitDy=0;entryX=0.5;entryY=1;entryDx=0;entryDy=0;" edge="1" parent="0r64ApJ4u7zwT-0783JS-141" source="0r64ApJ4u7zwT-0783JS-157" target="0r64ApJ4u7zwT-0783JS-156">
          <mxGeometry x="-0.5" y="-35" width="160" relative="1" as="geometry">
            <mxPoint x="540" y="480" as="sourcePoint" />
            <mxPoint x="590" y="577" as="targetPoint" />
            <mxPoint as="offset" />
          </mxGeometry>
        </mxCell>
        <mxCell id="0r64ApJ4u7zwT-0783JS-164" value="&amp;lt;&amp;lt;extends&amp;gt;&amp;gt;" style="html=1;verticalAlign=bottom;labelBackgroundColor=none;endArrow=open;endFill=0;dashed=1;rounded=0;exitX=0.5;exitY=1;exitDx=0;exitDy=0;entryX=1;entryY=0;entryDx=0;entryDy=0;" edge="1" parent="0r64ApJ4u7zwT-0783JS-141" source="0r64ApJ4u7zwT-0783JS-160" target="0r64ApJ4u7zwT-0783JS-161">
          <mxGeometry x="-0.6192" y="34" width="160" relative="1" as="geometry">
            <mxPoint x="580" y="1080" as="sourcePoint" />
            <mxPoint x="580" y="910" as="targetPoint" />
            <mxPoint as="offset" />
          </mxGeometry>
        </mxCell>
        <mxCell id="0r64ApJ4u7zwT-0783JS-165" value="CU27. Buscar autores y consejeros" style="ellipse;html=1;whiteSpace=wrap;" vertex="1" parent="0r64ApJ4u7zwT-0783JS-141">
          <mxGeometry x="145" y="860" width="150" height="50" as="geometry" />
        </mxCell>
        <mxCell id="0r64ApJ4u7zwT-0783JS-166" value="CU30. Ver historial de un autor" style="ellipse;html=1;whiteSpace=wrap;" vertex="1" parent="0r64ApJ4u7zwT-0783JS-141">
          <mxGeometry x="305" y="889" width="110" height="60" as="geometry" />
        </mxCell>
        <mxCell id="0r64ApJ4u7zwT-0783JS-167" value="CU29. Ver historial de un articulo" style="ellipse;html=1;whiteSpace=wrap;" vertex="1" parent="0r64ApJ4u7zwT-0783JS-141">
          <mxGeometry x="437.5" y="930" width="130" height="60" as="geometry" />
        </mxCell>
        <mxCell id="0r64ApJ4u7zwT-0783JS-168" value="CU26. Buscar/filtrar artículos" style="ellipse;html=1;whiteSpace=wrap;" vertex="1" parent="0r64ApJ4u7zwT-0783JS-141">
          <mxGeometry x="295" y="980" width="130" height="50" as="geometry" />
        </mxCell>
        <mxCell id="0r64ApJ4u7zwT-0783JS-169" value="CU34. Gestionar secciones de revista" style="ellipse;html=1;whiteSpace=wrap;" vertex="1" parent="0r64ApJ4u7zwT-0783JS-141">
          <mxGeometry x="20" y="1460" width="130" height="60" as="geometry" />
        </mxCell>
        <mxCell id="0r64ApJ4u7zwT-0783JS-170" value="CU33. Parámetros de revisión" style="ellipse;html=1;whiteSpace=wrap;" vertex="1" parent="0r64ApJ4u7zwT-0783JS-141">
          <mxGeometry x="165" y="1460" width="130" height="60" as="geometry" />
        </mxCell>
        <mxCell id="0r64ApJ4u7zwT-0783JS-171" value="CU32. Paquete para maquetación" style="ellipse;html=1;whiteSpace=wrap;" vertex="1" parent="0r64ApJ4u7zwT-0783JS-141">
          <mxGeometry x="500" y="1410" width="130" height="60" as="geometry" />
        </mxCell>
        <mxCell id="0r64ApJ4u7zwT-0783JS-172" value="CU28. Exportar listados" style="ellipse;html=1;whiteSpace=wrap;" vertex="1" parent="0r64ApJ4u7zwT-0783JS-141">
          <mxGeometry x="370" y="1350" width="150" height="40" as="geometry" />
        </mxCell>
        <mxCell id="0r64ApJ4u7zwT-0783JS-173" value="CU22. Asignar consejeros" style="ellipse;html=1;whiteSpace=wrap;" vertex="1" parent="0r64ApJ4u7zwT-0783JS-141">
          <mxGeometry x="305" y="1160" width="130" height="50" as="geometry" />
        </mxCell>
        <mxCell id="0r64ApJ4u7zwT-0783JS-235" value="CU35. Gestión de suscriptores" style="ellipse;html=1;whiteSpace=wrap;" vertex="1" parent="0r64ApJ4u7zwT-0783JS-141">
          <mxGeometry x="20" y="1530" width="130" height="60" as="geometry" />
        </mxCell>
        <mxCell id="0r64ApJ4u7zwT-0783JS-236" value="CU36. Gestión de suscripciones" style="ellipse;html=1;whiteSpace=wrap;" vertex="1" parent="0r64ApJ4u7zwT-0783JS-141">
          <mxGeometry x="170" y="1530" width="130" height="60" as="geometry" />
        </mxCell>
        <mxCell id="0r64ApJ4u7zwT-0783JS-237" value="CU37. Gestionar pagador de suscripción" style="ellipse;html=1;whiteSpace=wrap;" vertex="1" parent="0r64ApJ4u7zwT-0783JS-141">
          <mxGeometry x="325" y="1530" width="180" height="60" as="geometry" />
        </mxCell>
        <mxCell id="0r64ApJ4u7zwT-0783JS-238" value="CU38. Registrar forma de pago e IVA." style="ellipse;html=1;whiteSpace=wrap;" vertex="1" parent="0r64ApJ4u7zwT-0783JS-141">
          <mxGeometry x="465" y="1596" width="150" height="60" as="geometry" />
        </mxCell>
        <mxCell id="0r64ApJ4u7zwT-0783JS-239" value="CU39. Gestionar disribución de ejemplares." style="ellipse;html=1;whiteSpace=wrap;" vertex="1" parent="0r64ApJ4u7zwT-0783JS-141">
          <mxGeometry x="340" y="1656" width="150" height="60" as="geometry" />
        </mxCell>
        <mxCell id="0r64ApJ4u7zwT-0783JS-240" value="CU40. Generar etiquetas de envío." style="ellipse;html=1;whiteSpace=wrap;" vertex="1" parent="0r64ApJ4u7zwT-0783JS-141">
          <mxGeometry x="155" y="1676" width="150" height="60" as="geometry" />
        </mxCell>
        <mxCell id="0r64ApJ4u7zwT-0783JS-248" value="CU41. Gestionar certificado de pago a autor." style="ellipse;html=1;whiteSpace=wrap;" vertex="1" parent="0r64ApJ4u7zwT-0783JS-141">
          <mxGeometry x="20" y="1736" width="180" height="60" as="geometry" />
        </mxCell>
        <mxCell id="0r64ApJ4u7zwT-0783JS-289" value="CU42. Gestionar recibos de facturación." style="ellipse;html=1;whiteSpace=wrap;" vertex="1" parent="0r64ApJ4u7zwT-0783JS-141">
          <mxGeometry x="265" y="1766" width="180" height="60" as="geometry" />
        </mxCell>
        <mxCell id="0r64ApJ4u7zwT-0783JS-292" value="CU43. Control de gastos." style="ellipse;html=1;whiteSpace=wrap;" vertex="1" parent="0r64ApJ4u7zwT-0783JS-141">
          <mxGeometry x="460" y="1826" width="155" height="60" as="geometry" />
        </mxCell>
        <mxCell id="0r64ApJ4u7zwT-0783JS-294" value="CU44. Consultar informes y estadísticas." style="ellipse;html=1;whiteSpace=wrap;" vertex="1" parent="0r64ApJ4u7zwT-0783JS-141">
          <mxGeometry x="277.5" y="1876" width="155" height="60" as="geometry" />
        </mxCell>
        <mxCell id="0r64ApJ4u7zwT-0783JS-174" value="" style="endArrow=none;html=1;rounded=0;entryX=0;entryY=0.5;entryDx=0;entryDy=0;" edge="1" parent="1" target="0r64ApJ4u7zwT-0783JS-142">
          <mxGeometry width="50" height="50" relative="1" as="geometry">
            <mxPoint x="1810" y="274" as="sourcePoint" />
            <mxPoint x="1980" y="374" as="targetPoint" />
          </mxGeometry>
        </mxCell>
        <mxCell id="0r64ApJ4u7zwT-0783JS-175" value="" style="endArrow=none;html=1;rounded=0;entryX=0;entryY=0;entryDx=0;entryDy=0;" edge="1" parent="1" target="0r64ApJ4u7zwT-0783JS-144">
          <mxGeometry width="50" height="50" relative="1" as="geometry">
            <mxPoint x="1750" y="484" as="sourcePoint" />
            <mxPoint x="1980" y="374" as="targetPoint" />
          </mxGeometry>
        </mxCell>
        <mxCell id="0r64ApJ4u7zwT-0783JS-176" value="" style="endArrow=none;html=1;rounded=0;entryX=0;entryY=0.5;entryDx=0;entryDy=0;" edge="1" parent="1" target="0r64ApJ4u7zwT-0783JS-144">
          <mxGeometry width="50" height="50" relative="1" as="geometry">
            <mxPoint x="1820" y="624" as="sourcePoint" />
            <mxPoint x="2050" y="414" as="targetPoint" />
          </mxGeometry>
        </mxCell>
        <mxCell id="0r64ApJ4u7zwT-0783JS-177" value="DICODEF" style="shape=umlActor;verticalLabelPosition=bottom;verticalAlign=top;html=1;" vertex="1" parent="1">
          <mxGeometry x="2540" y="244" width="30" height="60" as="geometry" />
        </mxCell>
        <mxCell id="0r64ApJ4u7zwT-0783JS-178" value="Administrador" style="shape=umlActor;verticalLabelPosition=bottom;verticalAlign=top;html=1;" vertex="1" parent="1">
          <mxGeometry x="1770" y="244" width="30" height="60" as="geometry" />
        </mxCell>
        <mxCell id="0r64ApJ4u7zwT-0783JS-179" value="Consejero" style="shape=umlActor;verticalLabelPosition=bottom;verticalAlign=top;html=1;" vertex="1" parent="1">
          <mxGeometry x="1770" y="614" width="30" height="60" as="geometry" />
        </mxCell>
        <mxCell id="0r64ApJ4u7zwT-0783JS-180" value="" style="endArrow=none;html=1;rounded=0;entryX=0;entryY=0;entryDx=0;entryDy=0;" edge="1" parent="1" target="0r64ApJ4u7zwT-0783JS-146">
          <mxGeometry width="50" height="50" relative="1" as="geometry">
            <mxPoint x="1750" y="494" as="sourcePoint" />
            <mxPoint x="2100" y="474" as="targetPoint" />
          </mxGeometry>
        </mxCell>
        <mxCell id="0r64ApJ4u7zwT-0783JS-181" value="" style="endArrow=none;html=1;rounded=0;entryX=0;entryY=0.5;entryDx=0;entryDy=0;" edge="1" parent="1" target="0r64ApJ4u7zwT-0783JS-146">
          <mxGeometry width="50" height="50" relative="1" as="geometry">
            <mxPoint x="1820" y="634" as="sourcePoint" />
            <mxPoint x="2070" y="494" as="targetPoint" />
          </mxGeometry>
        </mxCell>
        <mxCell id="0r64ApJ4u7zwT-0783JS-182" value="" style="endArrow=none;html=1;rounded=0;entryX=0;entryY=0.5;entryDx=0;entryDy=0;" edge="1" parent="1" target="0r64ApJ4u7zwT-0783JS-149">
          <mxGeometry width="50" height="50" relative="1" as="geometry">
            <mxPoint x="1750" y="394" as="sourcePoint" />
            <mxPoint x="2335" y="374" as="targetPoint" />
          </mxGeometry>
        </mxCell>
        <mxCell id="0r64ApJ4u7zwT-0783JS-183" value="" style="endArrow=none;html=1;rounded=0;entryX=0;entryY=0.5;entryDx=0;entryDy=0;" edge="1" parent="1" target="0r64ApJ4u7zwT-0783JS-150">
          <mxGeometry width="50" height="50" relative="1" as="geometry">
            <mxPoint x="1750" y="404" as="sourcePoint" />
            <mxPoint x="2130" y="384" as="targetPoint" />
          </mxGeometry>
        </mxCell>
        <mxCell id="0r64ApJ4u7zwT-0783JS-184" value="" style="endArrow=none;html=1;rounded=0;entryX=0;entryY=0.5;entryDx=0;entryDy=0;" edge="1" parent="1" target="0r64ApJ4u7zwT-0783JS-151">
          <mxGeometry width="50" height="50" relative="1" as="geometry">
            <mxPoint x="1750" y="414" as="sourcePoint" />
            <mxPoint x="2240" y="404" as="targetPoint" />
          </mxGeometry>
        </mxCell>
        <mxCell id="0r64ApJ4u7zwT-0783JS-185" value="Autor" style="shape=umlActor;verticalLabelPosition=bottom;verticalAlign=top;html=1;" vertex="1" parent="1">
          <mxGeometry x="1700" y="404" width="30" height="60" as="geometry" />
        </mxCell>
        <mxCell id="0r64ApJ4u7zwT-0783JS-186" value="" style="endArrow=none;html=1;rounded=0;entryX=0;entryY=0.5;entryDx=0;entryDy=0;" edge="1" parent="1" target="0r64ApJ4u7zwT-0783JS-152">
          <mxGeometry width="50" height="50" relative="1" as="geometry">
            <mxPoint x="1750" y="424" as="sourcePoint" />
            <mxPoint x="2340" y="489" as="targetPoint" />
          </mxGeometry>
        </mxCell>
        <mxCell id="0r64ApJ4u7zwT-0783JS-187" value="" style="endArrow=none;html=1;rounded=0;entryX=0;entryY=0.5;entryDx=0;entryDy=0;" edge="1" parent="1" target="0r64ApJ4u7zwT-0783JS-153">
          <mxGeometry width="50" height="50" relative="1" as="geometry">
            <mxPoint x="1750" y="434" as="sourcePoint" />
            <mxPoint x="2360" y="459" as="targetPoint" />
          </mxGeometry>
        </mxCell>
        <mxCell id="0r64ApJ4u7zwT-0783JS-188" value="" style="endArrow=none;html=1;rounded=0;entryX=0;entryY=0.5;entryDx=0;entryDy=0;" edge="1" parent="1" target="0r64ApJ4u7zwT-0783JS-154">
          <mxGeometry width="50" height="50" relative="1" as="geometry">
            <mxPoint x="1750" y="444" as="sourcePoint" />
            <mxPoint x="2430" y="569" as="targetPoint" />
          </mxGeometry>
        </mxCell>
        <mxCell id="0r64ApJ4u7zwT-0783JS-189" value="" style="endArrow=block;html=1;rounded=0;endFill=0;" edge="1" parent="1">
          <mxGeometry width="50" height="50" relative="1" as="geometry">
            <mxPoint x="1730" y="1344" as="sourcePoint" />
            <mxPoint x="1770" y="704" as="targetPoint" />
          </mxGeometry>
        </mxCell>
        <mxCell id="0r64ApJ4u7zwT-0783JS-190" value="" style="endArrow=block;html=1;rounded=0;endFill=0;" edge="1" parent="1">
          <mxGeometry width="50" height="50" relative="1" as="geometry">
            <mxPoint x="1710" y="1344" as="sourcePoint" />
            <mxPoint x="1714.7" y="494" as="targetPoint" />
          </mxGeometry>
        </mxCell>
        <mxCell id="0r64ApJ4u7zwT-0783JS-191" value="" style="endArrow=none;html=1;rounded=0;entryX=0;entryY=0;entryDx=0;entryDy=0;" edge="1" parent="1" target="0r64ApJ4u7zwT-0783JS-155">
          <mxGeometry width="50" height="50" relative="1" as="geometry">
            <mxPoint x="1750" y="454" as="sourcePoint" />
            <mxPoint x="2495" y="929" as="targetPoint" />
          </mxGeometry>
        </mxCell>
        <mxCell id="0r64ApJ4u7zwT-0783JS-192" value="" style="endArrow=none;html=1;rounded=0;entryX=0;entryY=0.5;entryDx=0;entryDy=0;" edge="1" parent="1" target="0r64ApJ4u7zwT-0783JS-156">
          <mxGeometry width="50" height="50" relative="1" as="geometry">
            <mxPoint x="1750" y="464" as="sourcePoint" />
            <mxPoint x="2575" y="979" as="targetPoint" />
          </mxGeometry>
        </mxCell>
        <mxCell id="0r64ApJ4u7zwT-0783JS-193" value="" style="endArrow=none;html=1;rounded=0;entryX=0;entryY=0.5;entryDx=0;entryDy=0;" edge="1" parent="1" target="0r64ApJ4u7zwT-0783JS-157">
          <mxGeometry width="50" height="50" relative="1" as="geometry">
            <mxPoint x="1750" y="474" as="sourcePoint" />
            <mxPoint x="2955" y="1109" as="targetPoint" />
          </mxGeometry>
        </mxCell>
        <mxCell id="0r64ApJ4u7zwT-0783JS-194" value="" style="endArrow=none;html=1;rounded=0;entryX=0;entryY=0;entryDx=0;entryDy=0;" edge="1" parent="1" target="0r64ApJ4u7zwT-0783JS-158">
          <mxGeometry width="50" height="50" relative="1" as="geometry">
            <mxPoint x="1820" y="644" as="sourcePoint" />
            <mxPoint x="2420" y="1129" as="targetPoint" />
          </mxGeometry>
        </mxCell>
        <mxCell id="0r64ApJ4u7zwT-0783JS-195" value="" style="endArrow=none;html=1;rounded=0;entryX=0;entryY=0;entryDx=0;entryDy=0;" edge="1" parent="1" target="0r64ApJ4u7zwT-0783JS-159">
          <mxGeometry width="50" height="50" relative="1" as="geometry">
            <mxPoint x="1820" y="654" as="sourcePoint" />
            <mxPoint x="2360" y="1144" as="targetPoint" />
          </mxGeometry>
        </mxCell>
        <mxCell id="0r64ApJ4u7zwT-0783JS-196" value="" style="endArrow=none;html=1;rounded=0;entryX=0.5;entryY=0;entryDx=0;entryDy=0;" edge="1" parent="1" target="0r64ApJ4u7zwT-0783JS-160">
          <mxGeometry width="50" height="50" relative="1" as="geometry">
            <mxPoint x="1820" y="664" as="sourcePoint" />
            <mxPoint x="2287" y="1273" as="targetPoint" />
          </mxGeometry>
        </mxCell>
        <mxCell id="0r64ApJ4u7zwT-0783JS-197" value="" style="endArrow=none;html=1;rounded=0;entryX=0.5;entryY=0;entryDx=0;entryDy=0;" edge="1" parent="1" target="0r64ApJ4u7zwT-0783JS-161">
          <mxGeometry width="50" height="50" relative="1" as="geometry">
            <mxPoint x="1820" y="674" as="sourcePoint" />
            <mxPoint x="2190" y="1314" as="targetPoint" />
          </mxGeometry>
        </mxCell>
        <mxCell id="0r64ApJ4u7zwT-0783JS-198" value="" style="endArrow=none;html=1;rounded=0;exitX=1;exitY=0.5;exitDx=0;exitDy=0;" edge="1" parent="1" source="0r64ApJ4u7zwT-0783JS-142">
          <mxGeometry width="50" height="50" relative="1" as="geometry">
            <mxPoint x="2460" y="289" as="sourcePoint" />
            <mxPoint x="2530" y="274" as="targetPoint" />
          </mxGeometry>
        </mxCell>
        <mxCell id="0r64ApJ4u7zwT-0783JS-199" value="CU14. Cambio de estado de articulo" style="ellipse;html=1;whiteSpace=wrap;" vertex="1" parent="1">
          <mxGeometry x="2290" y="1234" width="120" height="60" as="geometry" />
        </mxCell>
        <mxCell id="0r64ApJ4u7zwT-0783JS-200" value="CU15. Comunicación con el autor" style="ellipse;html=1;whiteSpace=wrap;" vertex="1" parent="1">
          <mxGeometry x="1870" y="1234" width="130" height="60" as="geometry" />
        </mxCell>
        <mxCell id="0r64ApJ4u7zwT-0783JS-201" value="CU20. Control de evaluaciones" style="ellipse;html=1;whiteSpace=wrap;" vertex="1" parent="1">
          <mxGeometry x="2020" y="1324" width="130" height="60" as="geometry" />
        </mxCell>
        <mxCell id="0r64ApJ4u7zwT-0783JS-202" value="CU21. Anonimización de manuscrito" style="ellipse;html=1;whiteSpace=wrap;" vertex="1" parent="1">
          <mxGeometry x="2020" y="1234" width="130" height="60" as="geometry" />
        </mxCell>
        <mxCell id="0r64ApJ4u7zwT-0783JS-203" value="CU23. Decisión editorial" style="ellipse;html=1;whiteSpace=wrap;" vertex="1" parent="1">
          <mxGeometry x="2285" y="1424" width="130" height="60" as="geometry" />
        </mxCell>
        <mxCell id="0r64ApJ4u7zwT-0783JS-204" value="CU24. Gestionar Número de Revista" style="ellipse;html=1;whiteSpace=wrap;" vertex="1" parent="1">
          <mxGeometry x="2350" y="1499" width="130" height="60" as="geometry" />
        </mxCell>
        <mxCell id="0r64ApJ4u7zwT-0783JS-205" value="CU25. Generar etiquetas de cortesía" style="ellipse;html=1;whiteSpace=wrap;" vertex="1" parent="1">
          <mxGeometry x="2150" y="1499" width="130" height="60" as="geometry" />
        </mxCell>
        <mxCell id="0r64ApJ4u7zwT-0783JS-206" value="&amp;lt;&amp;lt;include&amp;gt;&amp;gt;" style="html=1;verticalAlign=bottom;labelBackgroundColor=none;endArrow=open;endFill=0;dashed=1;rounded=0;entryX=1;entryY=1;entryDx=0;entryDy=0;exitX=0;exitY=0;exitDx=0;exitDy=0;" edge="1" parent="1" source="0r64ApJ4u7zwT-0783JS-173" target="0r64ApJ4u7zwT-0783JS-201">
          <mxGeometry x="-1" y="-10" width="160" relative="1" as="geometry">
            <mxPoint x="2370" y="1344" as="sourcePoint" />
            <mxPoint x="2490" y="1401" as="targetPoint" />
            <mxPoint x="3" y="2" as="offset" />
          </mxGeometry>
        </mxCell>
        <mxCell id="0r64ApJ4u7zwT-0783JS-207" value="&amp;lt;&amp;lt;include&amp;gt;&amp;gt;" style="html=1;verticalAlign=bottom;labelBackgroundColor=none;endArrow=open;endFill=0;dashed=1;rounded=0;exitX=0.5;exitY=0;exitDx=0;exitDy=0;entryX=0;entryY=1;entryDx=0;entryDy=0;" edge="1" parent="1" source="0r64ApJ4u7zwT-0783JS-173" target="0r64ApJ4u7zwT-0783JS-199">
          <mxGeometry x="-0.2093" y="-34" width="160" relative="1" as="geometry">
            <mxPoint x="2370" y="1374" as="sourcePoint" />
            <mxPoint x="2370" y="1324" as="targetPoint" />
            <Array as="points" />
            <mxPoint as="offset" />
          </mxGeometry>
        </mxCell>
        <mxCell id="0r64ApJ4u7zwT-0783JS-208" value="&amp;lt;&amp;lt;extends&amp;gt;&amp;gt;" style="html=1;verticalAlign=bottom;labelBackgroundColor=none;endArrow=open;endFill=0;dashed=1;rounded=0;exitX=0.5;exitY=0;exitDx=0;exitDy=0;entryX=0.5;entryY=1;entryDx=0;entryDy=0;" edge="1" parent="1" source="0r64ApJ4u7zwT-0783JS-203" target="0r64ApJ4u7zwT-0783JS-199">
          <mxGeometry x="-0.1765" y="-40" width="160" relative="1" as="geometry">
            <mxPoint x="2390" y="1424" as="sourcePoint" />
            <mxPoint x="2390" y="1384" as="targetPoint" />
            <mxPoint as="offset" />
          </mxGeometry>
        </mxCell>
        <mxCell id="0r64ApJ4u7zwT-0783JS-209" value="&amp;lt;&amp;lt;extends&amp;gt;&amp;gt;" style="html=1;verticalAlign=bottom;labelBackgroundColor=none;endArrow=open;endFill=0;dashed=1;rounded=0;exitX=0;exitY=0.5;exitDx=0;exitDy=0;entryX=1;entryY=0.5;entryDx=0;entryDy=0;" edge="1" parent="1" source="0r64ApJ4u7zwT-0783JS-204" target="0r64ApJ4u7zwT-0783JS-205">
          <mxGeometry x="0.0286" width="160" relative="1" as="geometry">
            <mxPoint x="2107" y="1554" as="sourcePoint" />
            <mxPoint x="2070" y="1603" as="targetPoint" />
            <mxPoint as="offset" />
          </mxGeometry>
        </mxCell>
        <mxCell id="0r64ApJ4u7zwT-0783JS-210" value="&amp;lt;&amp;lt;extends&amp;gt;&amp;gt;" style="html=1;verticalAlign=bottom;labelBackgroundColor=none;endArrow=open;endFill=0;dashed=1;rounded=0;exitX=0.5;exitY=0;exitDx=0;exitDy=0;entryX=0.5;entryY=1;entryDx=0;entryDy=0;" edge="1" parent="1" source="0r64ApJ4u7zwT-0783JS-171" target="0r64ApJ4u7zwT-0783JS-204">
          <mxGeometry x="-0.0968" y="-45" width="160" relative="1" as="geometry">
            <mxPoint x="2440" y="1594" as="sourcePoint" />
            <mxPoint x="2370" y="1594" as="targetPoint" />
            <mxPoint as="offset" />
          </mxGeometry>
        </mxCell>
        <mxCell id="0r64ApJ4u7zwT-0783JS-211" value="Redactor" style="shape=umlActor;verticalLabelPosition=bottom;verticalAlign=top;html=1;" vertex="1" parent="1">
          <mxGeometry x="1710" y="1364" width="30" height="60" as="geometry" />
        </mxCell>
        <mxCell id="0r64ApJ4u7zwT-0783JS-212" value="" style="endArrow=none;html=1;rounded=0;entryX=0;entryY=0.5;entryDx=0;entryDy=0;" edge="1" parent="1" target="0r64ApJ4u7zwT-0783JS-199">
          <mxGeometry width="50" height="50" relative="1" as="geometry">
            <mxPoint x="1760" y="1374" as="sourcePoint" />
            <mxPoint x="2515" y="1249" as="targetPoint" />
          </mxGeometry>
        </mxCell>
        <mxCell id="0r64ApJ4u7zwT-0783JS-213" value="" style="endArrow=none;html=1;rounded=0;entryX=0;entryY=1;entryDx=0;entryDy=0;" edge="1" parent="1" target="0r64ApJ4u7zwT-0783JS-200">
          <mxGeometry width="50" height="50" relative="1" as="geometry">
            <mxPoint x="1760" y="1354" as="sourcePoint" />
            <mxPoint x="2040" y="1014" as="targetPoint" />
          </mxGeometry>
        </mxCell>
        <mxCell id="0r64ApJ4u7zwT-0783JS-214" value="" style="endArrow=none;html=1;rounded=0;entryX=0;entryY=0.5;entryDx=0;entryDy=0;" edge="1" parent="1" target="0r64ApJ4u7zwT-0783JS-201">
          <mxGeometry width="50" height="50" relative="1" as="geometry">
            <mxPoint x="1760" y="1384" as="sourcePoint" />
            <mxPoint x="2064" y="1354" as="targetPoint" />
          </mxGeometry>
        </mxCell>
        <mxCell id="0r64ApJ4u7zwT-0783JS-215" value="" style="endArrow=none;html=1;rounded=0;entryX=0;entryY=1;entryDx=0;entryDy=0;" edge="1" parent="1" target="0r64ApJ4u7zwT-0783JS-202">
          <mxGeometry width="50" height="50" relative="1" as="geometry">
            <mxPoint x="1760" y="1364" as="sourcePoint" />
            <mxPoint x="2370" y="1394" as="targetPoint" />
          </mxGeometry>
        </mxCell>
        <mxCell id="0r64ApJ4u7zwT-0783JS-216" value="" style="endArrow=none;html=1;rounded=0;entryX=0;entryY=0.5;entryDx=0;entryDy=0;" edge="1" parent="1" target="0r64ApJ4u7zwT-0783JS-173">
          <mxGeometry width="50" height="50" relative="1" as="geometry">
            <mxPoint x="1760" y="1394" as="sourcePoint" />
            <mxPoint x="2190" y="1424" as="targetPoint" />
          </mxGeometry>
        </mxCell>
        <mxCell id="0r64ApJ4u7zwT-0783JS-217" value="" style="endArrow=none;html=1;rounded=0;entryX=0;entryY=0.5;entryDx=0;entryDy=0;" edge="1" parent="1" target="0r64ApJ4u7zwT-0783JS-203">
          <mxGeometry width="50" height="50" relative="1" as="geometry">
            <mxPoint x="1760" y="1404" as="sourcePoint" />
            <mxPoint x="2190" y="1434" as="targetPoint" />
          </mxGeometry>
        </mxCell>
        <mxCell id="0r64ApJ4u7zwT-0783JS-218" value="" style="endArrow=none;html=1;rounded=0;entryX=0;entryY=0;entryDx=0;entryDy=0;" edge="1" parent="1" target="0r64ApJ4u7zwT-0783JS-204">
          <mxGeometry width="50" height="50" relative="1" as="geometry">
            <mxPoint x="1760" y="1414" as="sourcePoint" />
            <mxPoint x="2340" y="1504" as="targetPoint" />
          </mxGeometry>
        </mxCell>
        <mxCell id="0r64ApJ4u7zwT-0783JS-219" value="" style="endArrow=none;html=1;rounded=0;entryX=0;entryY=0;entryDx=0;entryDy=0;" edge="1" parent="1" target="0r64ApJ4u7zwT-0783JS-205">
          <mxGeometry width="50" height="50" relative="1" as="geometry">
            <mxPoint x="1760" y="1424" as="sourcePoint" />
            <mxPoint x="2310" y="1514" as="targetPoint" />
          </mxGeometry>
        </mxCell>
        <mxCell id="0r64ApJ4u7zwT-0783JS-220" value="" style="endArrow=none;html=1;rounded=0;entryX=0;entryY=0.5;entryDx=0;entryDy=0;" edge="1" parent="1" target="0r64ApJ4u7zwT-0783JS-168">
          <mxGeometry width="50" height="50" relative="1" as="geometry">
            <mxPoint x="1810" y="1204" as="sourcePoint" />
            <mxPoint x="2249" y="1593" as="targetPoint" />
          </mxGeometry>
        </mxCell>
        <mxCell id="0r64ApJ4u7zwT-0783JS-221" value="" style="endArrow=none;html=1;rounded=0;entryX=0;entryY=0.5;entryDx=0;entryDy=0;" edge="1" parent="1" target="0r64ApJ4u7zwT-0783JS-165">
          <mxGeometry width="50" height="50" relative="1" as="geometry">
            <mxPoint x="1810" y="1174" as="sourcePoint" />
            <mxPoint x="2239" y="1613" as="targetPoint" />
          </mxGeometry>
        </mxCell>
        <mxCell id="0r64ApJ4u7zwT-0783JS-222" value="" style="endArrow=none;html=1;rounded=0;entryX=0;entryY=0.5;entryDx=0;entryDy=0;" edge="1" parent="1" target="0r64ApJ4u7zwT-0783JS-172">
          <mxGeometry width="50" height="50" relative="1" as="geometry">
            <mxPoint x="1760" y="1434" as="sourcePoint" />
            <mxPoint x="2119" y="1643" as="targetPoint" />
          </mxGeometry>
        </mxCell>
        <mxCell id="0r64ApJ4u7zwT-0783JS-223" value="" style="endArrow=none;html=1;rounded=0;entryX=0;entryY=0.5;entryDx=0;entryDy=0;" edge="1" parent="1" target="0r64ApJ4u7zwT-0783JS-167">
          <mxGeometry width="50" height="50" relative="1" as="geometry">
            <mxPoint x="1810" y="1194" as="sourcePoint" />
            <mxPoint x="2310" y="1684" as="targetPoint" />
          </mxGeometry>
        </mxCell>
        <mxCell id="0r64ApJ4u7zwT-0783JS-224" value="" style="endArrow=none;html=1;rounded=0;entryX=0;entryY=0.5;entryDx=0;entryDy=0;" edge="1" parent="1" target="0r64ApJ4u7zwT-0783JS-166">
          <mxGeometry width="50" height="50" relative="1" as="geometry">
            <mxPoint x="1810" y="1184" as="sourcePoint" />
            <mxPoint x="2209" y="1713" as="targetPoint" />
          </mxGeometry>
        </mxCell>
        <mxCell id="0r64ApJ4u7zwT-0783JS-225" value="" style="endArrow=none;html=1;rounded=0;entryX=0;entryY=0.5;entryDx=0;entryDy=0;" edge="1" parent="1" target="0r64ApJ4u7zwT-0783JS-171">
          <mxGeometry width="50" height="50" relative="1" as="geometry">
            <mxPoint x="1760" y="1444" as="sourcePoint" />
            <mxPoint x="2515" y="1784" as="targetPoint" />
          </mxGeometry>
        </mxCell>
        <mxCell id="0r64ApJ4u7zwT-0783JS-226" value="" style="endArrow=none;html=1;rounded=0;entryX=0.5;entryY=0;entryDx=0;entryDy=0;" edge="1" parent="1" target="0r64ApJ4u7zwT-0783JS-170">
          <mxGeometry width="50" height="50" relative="1" as="geometry">
            <mxPoint x="1740" y="1454" as="sourcePoint" />
            <mxPoint x="2590" y="1904" as="targetPoint" />
          </mxGeometry>
        </mxCell>
        <mxCell id="0r64ApJ4u7zwT-0783JS-227" value="" style="endArrow=none;html=1;rounded=0;entryX=0;entryY=0;entryDx=0;entryDy=0;" edge="1" parent="1" target="0r64ApJ4u7zwT-0783JS-169">
          <mxGeometry width="50" height="50" relative="1" as="geometry">
            <mxPoint x="1730" y="1454" as="sourcePoint" />
            <mxPoint x="2240" y="1684" as="targetPoint" />
          </mxGeometry>
        </mxCell>
        <mxCell id="0r64ApJ4u7zwT-0783JS-228" value="Consulta" style="shape=umlActor;verticalLabelPosition=bottom;verticalAlign=top;html=1;" vertex="1" parent="1">
          <mxGeometry x="1770" y="1154" width="30" height="60" as="geometry" />
        </mxCell>
        <mxCell id="0r64ApJ4u7zwT-0783JS-229" value="" style="endArrow=block;html=1;rounded=0;endFill=0;" edge="1" parent="1">
          <mxGeometry width="50" height="50" relative="1" as="geometry">
            <mxPoint x="1740" y="1344" as="sourcePoint" />
            <mxPoint x="1780" y="1244" as="targetPoint" />
          </mxGeometry>
        </mxCell>
        <mxCell id="0r64ApJ4u7zwT-0783JS-230" value="" style="endArrow=none;html=1;rounded=0;entryX=0;entryY=0;entryDx=0;entryDy=0;" edge="1" parent="1" target="0r64ApJ4u7zwT-0783JS-231">
          <mxGeometry width="50" height="50" relative="1" as="geometry">
            <mxPoint x="1760" y="1454" as="sourcePoint" />
            <mxPoint x="2350" y="1744" as="targetPoint" />
          </mxGeometry>
        </mxCell>
        <mxCell id="0r64ApJ4u7zwT-0783JS-231" value="CU31. Marcar articulos asignados a un Nº de Revista" style="ellipse;html=1;whiteSpace=wrap;" vertex="1" parent="1">
          <mxGeometry x="2170" y="1684" width="180" height="60" as="geometry" />
        </mxCell>
        <mxCell id="0r64ApJ4u7zwT-0783JS-232" value="Director" style="shape=umlActor;verticalLabelPosition=bottom;verticalAlign=top;html=1;" vertex="1" parent="1">
          <mxGeometry x="1700" y="2050" width="30" height="60" as="geometry" />
        </mxCell>
        <mxCell id="0r64ApJ4u7zwT-0783JS-233" value="" style="endArrow=block;html=1;rounded=0;endFill=0;" edge="1" parent="1">
          <mxGeometry width="50" height="50" relative="1" as="geometry">
            <mxPoint x="1720" y="2030" as="sourcePoint" />
            <mxPoint x="1720" y="1460" as="targetPoint" />
          </mxGeometry>
        </mxCell>
        <mxCell id="0r64ApJ4u7zwT-0783JS-234" value="Distribuidor" style="shape=umlActor;verticalLabelPosition=bottom;verticalAlign=top;html=1;" vertex="1" parent="1">
          <mxGeometry x="1770" y="1840" width="30" height="60" as="geometry" />
        </mxCell>
        <mxCell id="0r64ApJ4u7zwT-0783JS-241" value="" style="endArrow=none;html=1;rounded=0;entryX=0;entryY=1;entryDx=0;entryDy=0;" edge="1" parent="1" target="0r64ApJ4u7zwT-0783JS-235">
          <mxGeometry width="50" height="50" relative="1" as="geometry">
            <mxPoint x="1810" y="1850" as="sourcePoint" />
            <mxPoint x="2069" y="2139" as="targetPoint" />
          </mxGeometry>
        </mxCell>
        <mxCell id="0r64ApJ4u7zwT-0783JS-242" value="" style="endArrow=none;html=1;rounded=0;entryX=0;entryY=1;entryDx=0;entryDy=0;" edge="1" parent="1" target="0r64ApJ4u7zwT-0783JS-236">
          <mxGeometry width="50" height="50" relative="1" as="geometry">
            <mxPoint x="1810" y="1860" as="sourcePoint" />
            <mxPoint x="2049" y="2079" as="targetPoint" />
          </mxGeometry>
        </mxCell>
        <mxCell id="0r64ApJ4u7zwT-0783JS-243" value="" style="endArrow=none;html=1;rounded=0;entryX=0;entryY=1;entryDx=0;entryDy=0;" edge="1" parent="1" target="0r64ApJ4u7zwT-0783JS-237">
          <mxGeometry width="50" height="50" relative="1" as="geometry">
            <mxPoint x="1810" y="1870" as="sourcePoint" />
            <mxPoint x="2129" y="2109" as="targetPoint" />
          </mxGeometry>
        </mxCell>
        <mxCell id="0r64ApJ4u7zwT-0783JS-244" value="" style="endArrow=none;html=1;rounded=0;entryX=0;entryY=0.5;entryDx=0;entryDy=0;" edge="1" parent="1" target="0r64ApJ4u7zwT-0783JS-238">
          <mxGeometry width="50" height="50" relative="1" as="geometry">
            <mxPoint x="1810" y="1880" as="sourcePoint" />
            <mxPoint x="2119" y="2119" as="targetPoint" />
          </mxGeometry>
        </mxCell>
        <mxCell id="0r64ApJ4u7zwT-0783JS-245" value="" style="endArrow=none;html=1;rounded=0;entryX=0;entryY=0;entryDx=0;entryDy=0;" edge="1" parent="1" target="0r64ApJ4u7zwT-0783JS-239">
          <mxGeometry width="50" height="50" relative="1" as="geometry">
            <mxPoint x="1810" y="1890" as="sourcePoint" />
            <mxPoint x="2169" y="2219" as="targetPoint" />
          </mxGeometry>
        </mxCell>
        <mxCell id="0r64ApJ4u7zwT-0783JS-246" value="" style="endArrow=none;html=1;rounded=0;entryX=0;entryY=0.5;entryDx=0;entryDy=0;" edge="1" parent="1" target="0r64ApJ4u7zwT-0783JS-240">
          <mxGeometry width="50" height="50" relative="1" as="geometry">
            <mxPoint x="1810" y="1900" as="sourcePoint" />
            <mxPoint x="2369" y="2219" as="targetPoint" />
          </mxGeometry>
        </mxCell>
        <mxCell id="0r64ApJ4u7zwT-0783JS-247" value="" style="endArrow=block;html=1;rounded=0;endFill=0;" edge="1" parent="1">
          <mxGeometry width="50" height="50" relative="1" as="geometry">
            <mxPoint x="1740" y="2030" as="sourcePoint" />
            <mxPoint x="1780" y="1930" as="targetPoint" />
          </mxGeometry>
        </mxCell>
        <mxCell id="0r64ApJ4u7zwT-0783JS-290" value="" style="endArrow=none;html=1;rounded=0;entryX=0;entryY=0.5;entryDx=0;entryDy=0;" edge="1" parent="1" target="0r64ApJ4u7zwT-0783JS-248">
          <mxGeometry width="50" height="50" relative="1" as="geometry">
            <mxPoint x="1750" y="2060" as="sourcePoint" />
            <mxPoint x="1985" y="2070" as="targetPoint" />
          </mxGeometry>
        </mxCell>
        <mxCell id="0r64ApJ4u7zwT-0783JS-291" value="" style="endArrow=none;html=1;rounded=0;entryX=0;entryY=0.5;entryDx=0;entryDy=0;" edge="1" parent="1" target="0r64ApJ4u7zwT-0783JS-289">
          <mxGeometry width="50" height="50" relative="1" as="geometry">
            <mxPoint x="1750" y="2070" as="sourcePoint" />
            <mxPoint x="2125" y="2120" as="targetPoint" />
          </mxGeometry>
        </mxCell>
        <mxCell id="0r64ApJ4u7zwT-0783JS-293" value="" style="endArrow=none;html=1;rounded=0;entryX=0;entryY=0.5;entryDx=0;entryDy=0;" edge="1" parent="1" target="0r64ApJ4u7zwT-0783JS-292">
          <mxGeometry width="50" height="50" relative="1" as="geometry">
            <mxPoint x="1750" y="2080" as="sourcePoint" />
            <mxPoint x="2395" y="2080" as="targetPoint" />
          </mxGeometry>
        </mxCell>
        <mxCell id="0r64ApJ4u7zwT-0783JS-295" value="" style="endArrow=none;html=1;rounded=0;entryX=0;entryY=0.5;entryDx=0;entryDy=0;" edge="1" parent="1" target="0r64ApJ4u7zwT-0783JS-294">
          <mxGeometry width="50" height="50" relative="1" as="geometry">
            <mxPoint x="1750" y="2090" as="sourcePoint" />
            <mxPoint x="2560" y="2120" as="targetPoint" />
          </mxGeometry>
        </mxCell>
      </root>
    </mxGraphModel>
  </diagram>
</mxfile>
